<mxfile host="65bd71144e">
    <diagram id="afJgA6YJ7kgfRQqBY9Ge" name="Page-1">
        <mxGraphModel dx="6040" dy="4252" grid="1" gridSize="10" guides="1" tooltips="1" connect="1" arrows="1" fold="1" page="1" pageScale="1" pageWidth="1654" pageHeight="2336" background="none" math="0" shadow="0">
            <root>
                <mxCell id="0"/>
                <mxCell id="1" parent="0"/>
                <mxCell id="462" style="edgeStyle=none;html=1;" edge="1" parent="1" source="438" target="439">
                    <mxGeometry relative="1" as="geometry"/>
                </mxCell>
                <mxCell id="438" value="&lt;div style=&quot;color: rgb(204, 204, 204); font-family: Menlo, Monaco, &amp;quot;Courier New&amp;quot;, monospace; line-height: 18px; font-size: 12px;&quot;&gt;&lt;div style=&quot;background-color: rgb(31, 31, 31); line-height: 18px;&quot;&gt;&lt;span style=&quot;color: #dcdcaa;&quot;&gt;fontCharConstuctor()&lt;/span&gt;&lt;/div&gt;&lt;/div&gt;" style="strokeWidth=2;html=1;shape=mxgraph.flowchart.start_1;whiteSpace=wrap;labelBackgroundColor=none;flipH=1;flipV=1;shadow=0;labelBorderColor=none;fillColor=#333333;fontSize=12;" vertex="1" parent="1">
                    <mxGeometry x="-3250" y="-2230" width="170" height="60" as="geometry"/>
                </mxCell>
                <mxCell id="463" value="" style="edgeStyle=none;html=1;" edge="1" parent="1" source="439" target="441">
                    <mxGeometry relative="1" as="geometry"/>
                </mxCell>
                <mxCell id="439" value="&lt;div style=&quot;color: rgb(204, 204, 204); font-family: Menlo, Monaco, &amp;quot;Courier New&amp;quot;, monospace; font-weight: normal; font-size: 12px; line-height: 18px;&quot;&gt;&lt;div style=&quot;line-height: 18px; font-size: 12px;&quot;&gt;&lt;div style=&quot;line-height: 18px; font-size: 12px;&quot;&gt;&lt;div style=&quot;background-color: rgb(31, 31, 31); line-height: 18px;&quot;&gt;&lt;span style=&quot;color: rgb(212, 212, 212);&quot;&gt;*&lt;/span&gt;&lt;span style=&quot;color: rgb(156, 220, 254);&quot;&gt;font_char =&amp;nbsp;&lt;/span&gt;&lt;span style=&quot;color: #dcdcaa;&quot;&gt;malloc&lt;/span&gt;(&lt;span style=&quot;color: #569cd6;&quot;&gt;sizeof&lt;/span&gt;(&lt;/div&gt;&lt;div style=&quot;background-color: rgb(31, 31, 31); line-height: 18px;&quot;&gt;&lt;span style=&quot;color: #4ec9b0;&quot;&gt;fontCharacter_t&lt;/span&gt;))&lt;/div&gt;&lt;/div&gt;&lt;/div&gt;&lt;/div&gt;" style="rounded=1;whiteSpace=wrap;html=1;labelBackgroundColor=none;flipH=1;flipV=1;shadow=0;labelBorderColor=none;fillColor=#333333;fontSize=12;" vertex="1" parent="1">
                    <mxGeometry x="-3255" y="-2134" width="180" height="60" as="geometry"/>
                </mxCell>
                <mxCell id="440" value="yes" style="edgeStyle=none;html=1;labelBackgroundColor=none;fontSize=12;" edge="1" parent="1" source="441" target="443">
                    <mxGeometry x="0.0127" y="19" relative="1" as="geometry">
                        <mxPoint as="offset"/>
                    </mxGeometry>
                </mxCell>
                <mxCell id="458" value="no" style="edgeStyle=none;html=1;" edge="1" parent="1" source="441" target="445">
                    <mxGeometry x="-0.0659" y="16" relative="1" as="geometry">
                        <mxPoint as="offset"/>
                    </mxGeometry>
                </mxCell>
                <mxCell id="441" value="&lt;div style=&quot;font-family: Menlo, Monaco, &amp;quot;Courier New&amp;quot;, monospace; font-weight: normal; font-size: 12px; line-height: 18px;&quot;&gt;&lt;span style=&quot;color: rgb(204, 204, 204); font-size: 12px;&quot;&gt;&lt;/span&gt;&lt;div style=&quot;line-height: 18px; font-size: 12px;&quot;&gt;&lt;span style=&quot;color: rgb(197, 134, 192); font-size: 12px;&quot;&gt;if&lt;/span&gt;&lt;span style=&quot;color: rgb(204, 204, 204); font-size: 12px;&quot;&gt;(&lt;/span&gt;&lt;/div&gt;&lt;div style=&quot;line-height: 18px; font-size: 12px;&quot;&gt;&lt;font color=&quot;#9cdcfe&quot; style=&quot;font-size: 12px;&quot;&gt;!&lt;/font&gt;&lt;span style=&quot;color: rgb(156, 220, 254); background-color: rgb(31, 31, 31);&quot;&gt;font_char&lt;/span&gt;&lt;br&gt;&lt;/div&gt;&lt;div style=&quot;line-height: 18px; font-size: 12px;&quot;&gt;&lt;span style=&quot;color: rgb(204, 204, 204); font-size: 12px;&quot;&gt;)&lt;/span&gt;&lt;br style=&quot;font-size: 12px;&quot;&gt;&lt;/div&gt;&lt;/div&gt;" style="rhombus;whiteSpace=wrap;html=1;labelBackgroundColor=none;flipH=1;flipV=1;shadow=0;labelBorderColor=none;fillColor=#333333;fontSize=12;" vertex="1" parent="1">
                    <mxGeometry x="-3266.375" y="-2050" width="202.75" height="163" as="geometry"/>
                </mxCell>
                <mxCell id="442" style="edgeStyle=none;html=1;entryX=0.5;entryY=1;entryDx=0;entryDy=0;entryPerimeter=0;labelBackgroundColor=none;fontSize=12;" edge="1" parent="1" source="443" target="444">
                    <mxGeometry relative="1" as="geometry"/>
                </mxCell>
                <mxCell id="443" value="&lt;div style=&quot;color: rgb(204, 204, 204); font-family: Menlo, Monaco, &amp;quot;Courier New&amp;quot;, monospace; line-height: 18px; font-size: 12px;&quot;&gt;&lt;span style=&quot;color: rgb(220, 220, 170); font-size: 12px;&quot;&gt;ErrorHandler&lt;/span&gt;()&lt;/div&gt;" style="shape=process;whiteSpace=wrap;html=1;backgroundOutline=1;labelBackgroundColor=none;flipH=1;flipV=1;shadow=0;labelBorderColor=none;fillColor=#333333;fontSize=12;" vertex="1" parent="1">
                    <mxGeometry x="-3001.62" y="-1994" width="150" height="58" as="geometry"/>
                </mxCell>
                <mxCell id="444" value="&lt;div style=&quot;color: rgb(204, 204, 204); font-family: Menlo, Monaco, &amp;quot;Courier New&amp;quot;, monospace; line-height: 18px; font-size: 12px;&quot;&gt;&lt;div style=&quot;line-height: 18px; font-size: 12px;&quot;&gt;&lt;div style=&quot;line-height: 18px; font-size: 12px;&quot;&gt;&lt;div style=&quot;line-height: 18px; font-size: 12px;&quot;&gt;&lt;div style=&quot;line-height: 18px; font-size: 12px;&quot;&gt;&lt;div style=&quot;background-color: rgb(31, 31, 31); line-height: 18px;&quot;&gt;&lt;div style=&quot;line-height: 18px;&quot;&gt;&lt;span style=&quot;color: #569cd6;&quot;&gt;NULL&lt;/span&gt;&lt;/div&gt;&lt;/div&gt;&lt;/div&gt;&lt;/div&gt;&lt;/div&gt;&lt;/div&gt;&lt;/div&gt;" style="strokeWidth=2;html=1;shape=mxgraph.flowchart.terminator;whiteSpace=wrap;labelBackgroundColor=none;flipH=1;flipV=1;shadow=0;labelBorderColor=none;fillColor=#333333;fontSize=12;" vertex="1" parent="1">
                    <mxGeometry x="-3041.62" y="-1899" width="230" height="60" as="geometry"/>
                </mxCell>
                <mxCell id="464" value="" style="edgeStyle=none;html=1;" edge="1" parent="1" source="445" target="446">
                    <mxGeometry relative="1" as="geometry"/>
                </mxCell>
                <mxCell id="445" value="&lt;div style=&quot;font-family: Menlo, Monaco, &amp;quot;Courier New&amp;quot;, monospace; font-weight: normal; font-size: 12px; line-height: 18px;&quot;&gt;&lt;div style=&quot;line-height: 18px; font-size: 12px;&quot;&gt;&lt;div style=&quot;line-height: 18px; font-size: 12px;&quot;&gt;&lt;div style=&quot;background-color: rgb(31, 31, 31); line-height: 18px;&quot;&gt;&lt;div style=&quot;line-height: 18px;&quot;&gt;&lt;span style=&quot;color: rgb(156, 220, 254);&quot;&gt;font_char&lt;/span&gt;&lt;font color=&quot;#cccccc&quot;&gt;.&lt;/font&gt;&lt;span style=&quot;color: rgb(156, 220, 254);&quot;&gt;asciiKey&lt;/span&gt; &lt;span style=&quot;color: rgb(212, 212, 212);&quot;&gt;=&lt;/span&gt; &lt;span style=&quot;color: rgb(156, 220, 254);&quot;&gt;asciiKey&lt;/span&gt;&lt;/div&gt;&lt;/div&gt;&lt;/div&gt;&lt;/div&gt;&lt;/div&gt;" style="rounded=1;whiteSpace=wrap;html=1;labelBackgroundColor=none;flipH=1;flipV=1;shadow=0;labelBorderColor=none;fillColor=#333333;fontSize=12;" vertex="1" parent="1">
                    <mxGeometry x="-3255" y="-1848" width="180" height="60" as="geometry"/>
                </mxCell>
                <mxCell id="465" value="" style="edgeStyle=none;html=1;" edge="1" parent="1" source="446" target="447">
                    <mxGeometry relative="1" as="geometry"/>
                </mxCell>
                <mxCell id="446" value="&lt;div style=&quot;font-family: Menlo, Monaco, &amp;quot;Courier New&amp;quot;, monospace; font-weight: normal; font-size: 12px; line-height: 18px;&quot;&gt;&lt;div style=&quot;line-height: 18px; font-size: 12px;&quot;&gt;&lt;div style=&quot;line-height: 18px; font-size: 12px;&quot;&gt;&lt;div style=&quot;background-color: rgb(31, 31, 31); line-height: 18px;&quot;&gt;&lt;div style=&quot;line-height: 18px;&quot;&gt;&lt;div style=&quot;line-height: 18px;&quot;&gt;&lt;span style=&quot;color: rgb(156, 220, 254);&quot;&gt;font_char&lt;/span&gt;&lt;font color=&quot;#cccccc&quot;&gt;.&lt;/font&gt;&lt;span style=&quot;color: rgb(156, 220, 254);&quot;&gt;numStrokes&lt;/span&gt; &lt;span style=&quot;color: rgb(212, 212, 212);&quot;&gt;=&lt;/span&gt; &lt;span style=&quot;color: rgb(156, 220, 254);&quot;&gt;numStrokes&lt;/span&gt;&lt;font color=&quot;#cccccc&quot;&gt;;&lt;/font&gt;&lt;/div&gt;&lt;/div&gt;&lt;/div&gt;&lt;/div&gt;&lt;/div&gt;&lt;/div&gt;" style="rounded=1;whiteSpace=wrap;html=1;labelBackgroundColor=none;flipH=1;flipV=1;shadow=0;labelBorderColor=none;fillColor=#333333;fontSize=12;" vertex="1" parent="1">
                    <mxGeometry x="-3255" y="-1749" width="180" height="60" as="geometry"/>
                </mxCell>
                <mxCell id="467" style="edgeStyle=none;html=1;entryX=0.5;entryY=0;entryDx=0;entryDy=0;" edge="1" parent="1" source="447" target="448">
                    <mxGeometry relative="1" as="geometry"/>
                </mxCell>
                <mxCell id="447" value="&lt;div style=&quot;font-family: Menlo, Monaco, &amp;quot;Courier New&amp;quot;, monospace; font-weight: normal; font-size: 12px; line-height: 18px;&quot;&gt;&lt;div style=&quot;line-height: 18px; font-size: 12px;&quot;&gt;&lt;div style=&quot;line-height: 18px; font-size: 12px;&quot;&gt;&lt;div style=&quot;background-color: rgb(31, 31, 31); line-height: 18px;&quot;&gt;&lt;div style=&quot;line-height: 18px;&quot;&gt;&lt;div style=&quot;line-height: 18px;&quot;&gt;&lt;span style=&quot;color: rgb(156, 220, 254);&quot;&gt;font_char&lt;/span&gt;&lt;font color=&quot;#cccccc&quot;&gt;.&lt;/font&gt;&lt;span style=&quot;color: rgb(156, 220, 254);&quot;&gt;strokeIdx&lt;/span&gt; &lt;span style=&quot;color: rgb(212, 212, 212);&quot;&gt;=&lt;/span&gt; &lt;span style=&quot;color: rgb(181, 206, 168);&quot;&gt;1&lt;/span&gt;&lt;/div&gt;&lt;/div&gt;&lt;/div&gt;&lt;/div&gt;&lt;/div&gt;&lt;/div&gt;" style="rounded=1;whiteSpace=wrap;html=1;labelBackgroundColor=none;flipH=1;flipV=1;shadow=0;labelBorderColor=none;fillColor=#333333;fontSize=12;" vertex="1" parent="1">
                    <mxGeometry x="-3255" y="-1654" width="180" height="60" as="geometry"/>
                </mxCell>
                <mxCell id="468" value="" style="edgeStyle=none;html=1;" edge="1" parent="1" source="448" target="450">
                    <mxGeometry relative="1" as="geometry"/>
                </mxCell>
                <mxCell id="448" value="&lt;div style=&quot;font-family: Menlo, Monaco, &amp;quot;Courier New&amp;quot;, monospace; font-weight: normal; font-size: 12px; line-height: 18px;&quot;&gt;&lt;div style=&quot;line-height: 18px; font-size: 12px;&quot;&gt;&lt;div style=&quot;line-height: 18px; font-size: 12px;&quot;&gt;&lt;div style=&quot;background-color: rgb(31, 31, 31); line-height: 18px;&quot;&gt;&lt;div style=&quot;line-height: 18px;&quot;&gt;&lt;div style=&quot;line-height: 18px;&quot;&gt;&lt;div style=&quot;line-height: 18px;&quot;&gt;&lt;span style=&quot;color: rgb(156, 220, 254);&quot;&gt;font_char&lt;/span&gt;&lt;font color=&quot;#cccccc&quot;&gt;.&lt;/font&gt;&lt;span style=&quot;color: rgb(156, 220, 254);&quot;&gt;strokes&lt;/span&gt; &lt;span style=&quot;color: rgb(212, 212, 212);&quot;&gt;=&lt;/span&gt; &lt;span style=&quot;color: rgb(220, 220, 170);&quot;&gt;malloc&lt;/span&gt;&lt;font color=&quot;#cccccc&quot;&gt;(&lt;/font&gt;&lt;span style=&quot;color: rgb(156, 220, 254);&quot;&gt;numStrokes&lt;/span&gt; &lt;span style=&quot;color: rgb(212, 212, 212);&quot;&gt;*&lt;/span&gt; &lt;span style=&quot;color: rgb(86, 156, 214);&quot;&gt;sizeof&lt;/span&gt;&lt;font color=&quot;#cccccc&quot;&gt;(&lt;/font&gt;&lt;span style=&quot;color: rgb(78, 201, 176);&quot;&gt;stroke_t&lt;/span&gt;&lt;font color=&quot;#cccccc&quot;&gt;));&lt;/font&gt;&lt;/div&gt;&lt;/div&gt;&lt;/div&gt;&lt;/div&gt;&lt;/div&gt;&lt;/div&gt;&lt;/div&gt;" style="rounded=1;whiteSpace=wrap;html=1;labelBackgroundColor=none;flipH=1;flipV=1;shadow=0;labelBorderColor=none;fillColor=#333333;fontSize=12;" vertex="1" parent="1">
                    <mxGeometry x="-3255" y="-1566" width="180" height="60" as="geometry"/>
                </mxCell>
                <mxCell id="457" value="yes" style="edgeStyle=none;html=1;entryX=0;entryY=0.5;entryDx=0;entryDy=0;" edge="1" parent="1" source="450" target="454">
                    <mxGeometry x="0.2026" y="10" relative="1" as="geometry">
                        <mxPoint as="offset"/>
                    </mxGeometry>
                </mxCell>
                <mxCell id="469" value="no" style="edgeStyle=none;html=1;" edge="1" parent="1" source="450" target="459">
                    <mxGeometry x="-0.5152" y="15" relative="1" as="geometry">
                        <mxPoint as="offset"/>
                    </mxGeometry>
                </mxCell>
                <mxCell id="450" value="&lt;div style=&quot;font-family: Menlo, Monaco, &amp;quot;Courier New&amp;quot;, monospace; font-weight: normal; font-size: 12px; line-height: 18px;&quot;&gt;&lt;span style=&quot;color: rgb(204, 204, 204); font-size: 12px;&quot;&gt;&lt;/span&gt;&lt;div style=&quot;line-height: 18px; font-size: 12px;&quot;&gt;&lt;span style=&quot;color: rgb(197, 134, 192); font-size: 12px;&quot;&gt;if&lt;/span&gt;&lt;span style=&quot;color: rgb(204, 204, 204); font-size: 12px;&quot;&gt;(&lt;/span&gt;&lt;/div&gt;&lt;div style=&quot;line-height: 18px; font-size: 12px;&quot;&gt;&lt;font color=&quot;#9cdcfe&quot; style=&quot;font-size: 12px;&quot;&gt;!&lt;/font&gt;&lt;span style=&quot;color: rgb(156, 220, 254);&quot;&gt;font_char&lt;/span&gt;&lt;font color=&quot;#cccccc&quot;&gt;&lt;span style=&quot;background-color: rgb(31, 31, 31);&quot;&gt;.&lt;/span&gt;&lt;/font&gt;&lt;span style=&quot;color: rgb(156, 220, 254);&quot;&gt;strokes&lt;/span&gt;&lt;/div&gt;&lt;div style=&quot;line-height: 18px; font-size: 12px;&quot;&gt;&lt;span style=&quot;color: rgb(204, 204, 204); font-size: 12px;&quot;&gt;)&lt;/span&gt;&lt;br style=&quot;font-size: 12px;&quot;&gt;&lt;/div&gt;&lt;/div&gt;" style="rhombus;whiteSpace=wrap;html=1;labelBackgroundColor=none;flipH=1;flipV=1;shadow=0;labelBorderColor=none;fillColor=#333333;fontSize=12;" vertex="1" parent="1">
                    <mxGeometry x="-3266.375" y="-1481" width="202.75" height="163" as="geometry"/>
                </mxCell>
                <mxCell id="451" style="edgeStyle=none;html=1;entryX=0.5;entryY=1;entryDx=0;entryDy=0;entryPerimeter=0;labelBackgroundColor=none;fontSize=12;" edge="1" parent="1" source="452" target="453">
                    <mxGeometry relative="1" as="geometry"/>
                </mxCell>
                <mxCell id="452" value="&lt;div style=&quot;color: rgb(204, 204, 204); font-family: Menlo, Monaco, &amp;quot;Courier New&amp;quot;, monospace; line-height: 18px; font-size: 12px;&quot;&gt;&lt;span style=&quot;color: rgb(220, 220, 170); font-size: 12px;&quot;&gt;ErrorHandler&lt;/span&gt;()&lt;/div&gt;" style="shape=process;whiteSpace=wrap;html=1;backgroundOutline=1;labelBackgroundColor=none;flipH=1;flipV=1;shadow=0;labelBorderColor=none;fillColor=#333333;fontSize=12;" vertex="1" parent="1">
                    <mxGeometry x="-2980" y="-1342" width="150" height="58" as="geometry"/>
                </mxCell>
                <mxCell id="453" value="&lt;div style=&quot;color: rgb(204, 204, 204); font-family: Menlo, Monaco, &amp;quot;Courier New&amp;quot;, monospace; line-height: 18px; font-size: 12px;&quot;&gt;&lt;div style=&quot;line-height: 18px; font-size: 12px;&quot;&gt;&lt;div style=&quot;line-height: 18px; font-size: 12px;&quot;&gt;&lt;div style=&quot;line-height: 18px; font-size: 12px;&quot;&gt;&lt;div style=&quot;line-height: 18px; font-size: 12px;&quot;&gt;&lt;div style=&quot;background-color: rgb(31, 31, 31); line-height: 18px;&quot;&gt;&lt;div style=&quot;line-height: 18px;&quot;&gt;&lt;span style=&quot;color: #569cd6;&quot;&gt;NULL&lt;/span&gt;&lt;/div&gt;&lt;/div&gt;&lt;/div&gt;&lt;/div&gt;&lt;/div&gt;&lt;/div&gt;&lt;/div&gt;" style="strokeWidth=2;html=1;shape=mxgraph.flowchart.terminator;whiteSpace=wrap;labelBackgroundColor=none;flipH=1;flipV=1;shadow=0;labelBorderColor=none;fillColor=#333333;fontSize=12;" vertex="1" parent="1">
                    <mxGeometry x="-3020" y="-1254" width="230" height="60" as="geometry"/>
                </mxCell>
                <mxCell id="456" style="edgeStyle=none;html=1;entryX=0.5;entryY=0;entryDx=0;entryDy=0;" edge="1" parent="1" source="454" target="452">
                    <mxGeometry relative="1" as="geometry"/>
                </mxCell>
                <mxCell id="454" value="&lt;div style=&quot;font-family: Menlo, Monaco, &amp;quot;Courier New&amp;quot;, monospace; font-weight: normal; font-size: 12px; line-height: 18px;&quot;&gt;&lt;div style=&quot;line-height: 18px; font-size: 12px;&quot;&gt;&lt;div style=&quot;line-height: 18px; font-size: 12px;&quot;&gt;&lt;div style=&quot;background-color: rgb(31, 31, 31); line-height: 18px;&quot;&gt;&lt;div style=&quot;line-height: 18px;&quot;&gt;&lt;div style=&quot;line-height: 18px;&quot;&gt;&lt;div style=&quot;line-height: 18px;&quot;&gt;&lt;div style=&quot;color: rgb(204, 204, 204); line-height: 18px;&quot;&gt;&lt;span style=&quot;color: #dcdcaa;&quot;&gt;free&lt;/span&gt;(&lt;span style=&quot;color: #9cdcfe;&quot;&gt;font_char&lt;/span&gt;)&lt;/div&gt;&lt;/div&gt;&lt;/div&gt;&lt;/div&gt;&lt;/div&gt;&lt;/div&gt;&lt;/div&gt;&lt;/div&gt;" style="rounded=1;whiteSpace=wrap;html=1;labelBackgroundColor=none;flipH=1;flipV=1;shadow=0;labelBorderColor=none;fillColor=#333333;fontSize=12;" vertex="1" parent="1">
                    <mxGeometry x="-2995" y="-1430" width="180" height="60" as="geometry"/>
                </mxCell>
                <mxCell id="470" value="" style="edgeStyle=none;html=1;" edge="1" parent="1" source="459" target="460">
                    <mxGeometry relative="1" as="geometry"/>
                </mxCell>
                <mxCell id="459" value="&lt;div style=&quot;font-family: Menlo, Monaco, &amp;quot;Courier New&amp;quot;, monospace; font-weight: normal; font-size: 12px; line-height: 18px;&quot;&gt;&lt;div style=&quot;line-height: 18px; font-size: 12px;&quot;&gt;&lt;div style=&quot;line-height: 18px; font-size: 12px;&quot;&gt;&lt;div style=&quot;background-color: rgb(31, 31, 31); line-height: 18px;&quot;&gt;&lt;div style=&quot;line-height: 18px;&quot;&gt;&lt;div style=&quot;line-height: 18px;&quot;&gt;&lt;div style=&quot;line-height: 18px;&quot;&gt;&lt;div style=&quot;line-height: 18px;&quot;&gt;&lt;span style=&quot;color: rgb(156, 220, 254);&quot;&gt;font_char&lt;/span&gt;&lt;font color=&quot;#cccccc&quot;&gt;.&lt;/font&gt;&lt;span style=&quot;color: rgb(156, 220, 254);&quot;&gt;appendStroke&lt;/span&gt; &lt;span style=&quot;color: rgb(212, 212, 212);&quot;&gt;=&lt;/span&gt; &lt;span style=&quot;color: rgb(220, 220, 170);&quot;&gt;_appendStroke&lt;/span&gt;&lt;/div&gt;&lt;/div&gt;&lt;/div&gt;&lt;/div&gt;&lt;/div&gt;&lt;/div&gt;&lt;/div&gt;&lt;/div&gt;" style="rounded=1;whiteSpace=wrap;html=1;labelBackgroundColor=none;flipH=1;flipV=1;shadow=0;labelBorderColor=none;fillColor=#333333;fontSize=12;" vertex="1" parent="1">
                    <mxGeometry x="-3255" y="-1285" width="180" height="60" as="geometry"/>
                </mxCell>
                <mxCell id="471" value="" style="edgeStyle=none;html=1;" edge="1" parent="1" source="460" target="461">
                    <mxGeometry relative="1" as="geometry"/>
                </mxCell>
                <mxCell id="460" value="&lt;div style=&quot;font-family: Menlo, Monaco, &amp;quot;Courier New&amp;quot;, monospace; font-weight: normal; font-size: 12px; line-height: 18px;&quot;&gt;&lt;div style=&quot;line-height: 18px; font-size: 12px;&quot;&gt;&lt;div style=&quot;line-height: 18px; font-size: 12px;&quot;&gt;&lt;div style=&quot;background-color: rgb(31, 31, 31); line-height: 18px;&quot;&gt;&lt;div style=&quot;line-height: 18px;&quot;&gt;&lt;div style=&quot;line-height: 18px;&quot;&gt;&lt;div style=&quot;line-height: 18px;&quot;&gt;&lt;div style=&quot;line-height: 18px;&quot;&gt;&lt;div style=&quot;line-height: 18px;&quot;&gt;&lt;span style=&quot;color: rgb(156, 220, 254);&quot;&gt;font_char&lt;/span&gt;&lt;font color=&quot;#cccccc&quot;&gt;.&lt;/font&gt;&lt;span style=&quot;color: rgb(156, 220, 254);&quot;&gt;free&lt;/span&gt; &lt;span style=&quot;color: rgb(212, 212, 212);&quot;&gt;=&lt;/span&gt; &lt;span style=&quot;color: rgb(220, 220, 170);&quot;&gt;_free&lt;/span&gt;&lt;/div&gt;&lt;/div&gt;&lt;/div&gt;&lt;/div&gt;&lt;/div&gt;&lt;/div&gt;&lt;/div&gt;&lt;/div&gt;&lt;/div&gt;" style="rounded=1;whiteSpace=wrap;html=1;labelBackgroundColor=none;flipH=1;flipV=1;shadow=0;labelBorderColor=none;fillColor=#333333;fontSize=12;" vertex="1" parent="1">
                    <mxGeometry x="-3255" y="-1194" width="180" height="60" as="geometry"/>
                </mxCell>
                <mxCell id="461" value="&lt;div style=&quot;color: rgb(204, 204, 204); font-family: Menlo, Monaco, &amp;quot;Courier New&amp;quot;, monospace; line-height: 18px; font-size: 12px;&quot;&gt;&lt;div style=&quot;line-height: 18px; font-size: 12px;&quot;&gt;&lt;div style=&quot;line-height: 18px; font-size: 12px;&quot;&gt;&lt;div style=&quot;line-height: 18px; font-size: 12px;&quot;&gt;&lt;div style=&quot;line-height: 18px; font-size: 12px;&quot;&gt;&lt;div style=&quot;background-color: rgb(31, 31, 31); line-height: 18px;&quot;&gt;&lt;div style=&quot;line-height: 18px;&quot;&gt;&lt;span style=&quot;color: #9cdcfe;&quot;&gt;font_char&lt;/span&gt;&lt;/div&gt;&lt;/div&gt;&lt;/div&gt;&lt;/div&gt;&lt;/div&gt;&lt;/div&gt;&lt;/div&gt;" style="strokeWidth=2;html=1;shape=mxgraph.flowchart.terminator;whiteSpace=wrap;labelBackgroundColor=none;flipH=1;flipV=1;shadow=0;labelBorderColor=none;fillColor=#333333;fontSize=12;" vertex="1" parent="1">
                    <mxGeometry x="-3280" y="-1100" width="230" height="60" as="geometry"/>
                </mxCell>
                <mxCell id="480" style="edgeStyle=none;html=1;entryX=0.5;entryY=0;entryDx=0;entryDy=0;" edge="1" parent="1" source="472" target="476">
                    <mxGeometry relative="1" as="geometry"/>
                </mxCell>
                <mxCell id="472" value="&lt;div style=&quot;color: rgb(204, 204, 204); font-family: Menlo, Monaco, &amp;quot;Courier New&amp;quot;, monospace; line-height: 18px; font-size: 12px;&quot;&gt;&lt;div style=&quot;background-color: rgb(31, 31, 31); line-height: 18px;&quot;&gt;&lt;div style=&quot;line-height: 18px;&quot;&gt;&lt;span style=&quot;color: #dcdcaa;&quot;&gt;_appendStroke&lt;/span&gt;&lt;/div&gt;&lt;/div&gt;&lt;/div&gt;" style="strokeWidth=2;html=1;shape=mxgraph.flowchart.start_1;whiteSpace=wrap;labelBackgroundColor=none;flipH=1;flipV=1;shadow=0;labelBorderColor=none;fillColor=#333333;fontSize=12;" vertex="1" parent="1">
                    <mxGeometry x="-2651" y="-2240" width="170" height="60" as="geometry"/>
                </mxCell>
                <mxCell id="495" style="edgeStyle=none;html=1;entryX=0.5;entryY=0;entryDx=0;entryDy=0;" edge="1" parent="1" source="473" target="491">
                    <mxGeometry relative="1" as="geometry"/>
                </mxCell>
                <mxCell id="473" value="&lt;div style=&quot;color: rgb(204, 204, 204); font-family: Menlo, Monaco, &amp;quot;Courier New&amp;quot;, monospace; line-height: 18px; font-size: 12px;&quot;&gt;&lt;div style=&quot;background-color: rgb(31, 31, 31); line-height: 18px;&quot;&gt;&lt;div style=&quot;line-height: 18px;&quot;&gt;&lt;div style=&quot;line-height: 18px;&quot;&gt;&lt;span style=&quot;color: #dcdcaa;&quot;&gt;_free&lt;/span&gt;&lt;/div&gt;&lt;/div&gt;&lt;/div&gt;&lt;/div&gt;" style="strokeWidth=2;html=1;shape=mxgraph.flowchart.start_1;whiteSpace=wrap;labelBackgroundColor=none;flipH=1;flipV=1;shadow=0;labelBorderColor=none;fillColor=#333333;fontSize=12;" vertex="1" parent="1">
                    <mxGeometry x="-2110" y="-2240" width="170" height="60" as="geometry"/>
                </mxCell>
                <mxCell id="474" value="yes" style="edgeStyle=none;html=1;labelBackgroundColor=none;fontSize=12;" edge="1" parent="1" source="476" target="478">
                    <mxGeometry x="0.0127" y="19" relative="1" as="geometry">
                        <mxPoint as="offset"/>
                    </mxGeometry>
                </mxCell>
                <mxCell id="475" value="no" style="edgeStyle=none;html=1;" edge="1" parent="1" source="476">
                    <mxGeometry x="-0.0659" y="16" relative="1" as="geometry">
                        <mxPoint x="-2568.62" y="-1945" as="targetPoint"/>
                        <mxPoint as="offset"/>
                    </mxGeometry>
                </mxCell>
                <mxCell id="476" value="&lt;div style=&quot;font-family: Menlo, Monaco, &amp;quot;Courier New&amp;quot;, monospace; font-weight: normal; font-size: 12px; line-height: 18px;&quot;&gt;&lt;span style=&quot;color: rgb(204, 204, 204); font-size: 12px;&quot;&gt;&lt;/span&gt;&lt;div style=&quot;line-height: 18px; font-size: 12px;&quot;&gt;&lt;span style=&quot;color: rgb(197, 134, 192); font-size: 12px;&quot;&gt;if&lt;/span&gt;&lt;span style=&quot;color: rgb(204, 204, 204); font-size: 12px;&quot;&gt;(&lt;/span&gt;&lt;/div&gt;&lt;div style=&quot;line-height: 18px; font-size: 12px;&quot;&gt;&lt;font color=&quot;#9cdcfe&quot; style=&quot;font-size: 12px;&quot;&gt;!&lt;/font&gt;&lt;span style=&quot;color: rgb(156, 220, 254); background-color: rgb(31, 31, 31);&quot;&gt;self&lt;/span&gt;&lt;/div&gt;&lt;div style=&quot;line-height: 18px; font-size: 12px;&quot;&gt;&lt;span style=&quot;color: rgb(204, 204, 204); font-size: 12px;&quot;&gt;)&lt;/span&gt;&lt;br style=&quot;font-size: 12px;&quot;&gt;&lt;/div&gt;&lt;/div&gt;" style="rhombus;whiteSpace=wrap;html=1;labelBackgroundColor=none;flipH=1;flipV=1;shadow=0;labelBorderColor=none;fillColor=#333333;fontSize=12;" vertex="1" parent="1">
                    <mxGeometry x="-2669.995" y="-2147" width="202.75" height="163" as="geometry"/>
                </mxCell>
                <mxCell id="477" style="edgeStyle=none;html=1;entryX=0.5;entryY=1;entryDx=0;entryDy=0;entryPerimeter=0;labelBackgroundColor=none;fontSize=12;" edge="1" parent="1" source="478" target="479">
                    <mxGeometry relative="1" as="geometry"/>
                </mxCell>
                <mxCell id="478" value="&lt;div style=&quot;color: rgb(204, 204, 204); font-family: Menlo, Monaco, &amp;quot;Courier New&amp;quot;, monospace; line-height: 18px; font-size: 12px;&quot;&gt;&lt;span style=&quot;color: rgb(220, 220, 170); font-size: 12px;&quot;&gt;ErrorHandler&lt;/span&gt;()&lt;/div&gt;" style="shape=process;whiteSpace=wrap;html=1;backgroundOutline=1;labelBackgroundColor=none;flipH=1;flipV=1;shadow=0;labelBorderColor=none;fillColor=#333333;fontSize=12;" vertex="1" parent="1">
                    <mxGeometry x="-2405.24" y="-2091" width="150" height="58" as="geometry"/>
                </mxCell>
                <mxCell id="479" value="&lt;div style=&quot;color: rgb(204, 204, 204); font-family: Menlo, Monaco, &amp;quot;Courier New&amp;quot;, monospace; line-height: 18px; font-size: 12px;&quot;&gt;&lt;div style=&quot;line-height: 18px; font-size: 12px;&quot;&gt;&lt;div style=&quot;line-height: 18px; font-size: 12px;&quot;&gt;&lt;div style=&quot;line-height: 18px; font-size: 12px;&quot;&gt;&lt;div style=&quot;line-height: 18px; font-size: 12px;&quot;&gt;&lt;div style=&quot;background-color: rgb(31, 31, 31); line-height: 18px;&quot;&gt;&lt;div style=&quot;line-height: 18px;&quot;&gt;&lt;div style=&quot;line-height: 18px;&quot;&gt;&lt;span style=&quot;color: #4fc1ff;&quot;&gt;ERROR_NULL_POINTER&lt;/span&gt;&lt;/div&gt;&lt;/div&gt;&lt;/div&gt;&lt;/div&gt;&lt;/div&gt;&lt;/div&gt;&lt;/div&gt;&lt;/div&gt;" style="strokeWidth=2;html=1;shape=mxgraph.flowchart.terminator;whiteSpace=wrap;labelBackgroundColor=none;flipH=1;flipV=1;shadow=0;labelBorderColor=none;fillColor=#333333;fontSize=12;" vertex="1" parent="1">
                    <mxGeometry x="-2445.24" y="-1996" width="230" height="60" as="geometry"/>
                </mxCell>
                <mxCell id="481" value="yes" style="edgeStyle=none;html=1;labelBackgroundColor=none;fontSize=12;" edge="1" parent="1" source="483" target="485">
                    <mxGeometry x="-0.0977" y="18" relative="1" as="geometry">
                        <mxPoint as="offset"/>
                    </mxGeometry>
                </mxCell>
                <mxCell id="482" value="no" style="edgeStyle=none;html=1;" edge="1" parent="1" source="483">
                    <mxGeometry x="-0.0659" y="16" relative="1" as="geometry">
                        <mxPoint x="-2568.62" y="-1743" as="targetPoint"/>
                        <mxPoint as="offset"/>
                    </mxGeometry>
                </mxCell>
                <mxCell id="483" value="&lt;div style=&quot;font-family: Menlo, Monaco, &amp;quot;Courier New&amp;quot;, monospace; font-weight: normal; font-size: 12px; line-height: 18px;&quot;&gt;&lt;span style=&quot;color: rgb(204, 204, 204); font-size: 12px;&quot;&gt;&lt;/span&gt;&lt;div style=&quot;line-height: 18px; font-size: 12px;&quot;&gt;&lt;span style=&quot;color: rgb(197, 134, 192); font-size: 12px;&quot;&gt;if&lt;/span&gt;&lt;span style=&quot;color: rgb(204, 204, 204); font-size: 12px;&quot;&gt;(&lt;/span&gt;&lt;/div&gt;&lt;div style=&quot;line-height: 18px; font-size: 12px;&quot;&gt;&lt;span style=&quot;color: rgb(156, 220, 254);&quot;&gt;self&lt;/span&gt;&lt;font color=&quot;#cccccc&quot;&gt;&lt;span style=&quot;background-color: rgb(31, 31, 31);&quot;&gt;.&lt;/span&gt;&lt;/font&gt;&lt;span style=&quot;color: rgb(156, 220, 254);&quot;&gt;strokeIdx&lt;/span&gt;&lt;/div&gt;&lt;div style=&quot;line-height: 18px; font-size: 12px;&quot;&gt;&lt;span style=&quot;background-color: rgb(31, 31, 31); color: rgb(204, 204, 204);&quot;&gt; &lt;/span&gt;&lt;span style=&quot;color: rgb(212, 212, 212);&quot;&gt;&amp;gt;&lt;/span&gt;&lt;span style=&quot;background-color: rgb(31, 31, 31); color: rgb(204, 204, 204);&quot;&gt; &lt;/span&gt;&lt;span style=&quot;color: rgb(156, 220, 254);&quot;&gt;self&lt;/span&gt;&lt;font color=&quot;#cccccc&quot;&gt;&lt;span style=&quot;background-color: rgb(31, 31, 31);&quot;&gt;.&lt;/span&gt;&lt;/font&gt;&lt;span style=&quot;color: rgb(156, 220, 254);&quot;&gt;numStrokes&lt;/span&gt;&lt;/div&gt;&lt;div style=&quot;line-height: 18px; font-size: 12px;&quot;&gt;&lt;span style=&quot;color: rgb(204, 204, 204); font-size: 12px;&quot;&gt;)&lt;/span&gt;&lt;br style=&quot;font-size: 12px;&quot;&gt;&lt;/div&gt;&lt;/div&gt;" style="rhombus;whiteSpace=wrap;html=1;labelBackgroundColor=none;flipH=1;flipV=1;shadow=0;labelBorderColor=none;fillColor=#333333;fontSize=12;" vertex="1" parent="1">
                    <mxGeometry x="-2669.995" y="-1945" width="202.75" height="163" as="geometry"/>
                </mxCell>
                <mxCell id="484" style="edgeStyle=none;html=1;entryX=0.5;entryY=1;entryDx=0;entryDy=0;entryPerimeter=0;labelBackgroundColor=none;fontSize=12;" edge="1" parent="1" source="485" target="486">
                    <mxGeometry relative="1" as="geometry"/>
                </mxCell>
                <mxCell id="485" value="&lt;div style=&quot;color: rgb(204, 204, 204); font-family: Menlo, Monaco, &amp;quot;Courier New&amp;quot;, monospace; line-height: 18px; font-size: 12px;&quot;&gt;&lt;span style=&quot;color: rgb(220, 220, 170); font-size: 12px;&quot;&gt;ErrorHandler&lt;/span&gt;()&lt;/div&gt;" style="shape=process;whiteSpace=wrap;html=1;backgroundOutline=1;labelBackgroundColor=none;flipH=1;flipV=1;shadow=0;labelBorderColor=none;fillColor=#333333;fontSize=12;" vertex="1" parent="1">
                    <mxGeometry x="-2405.24" y="-1889" width="150" height="58" as="geometry"/>
                </mxCell>
                <mxCell id="486" value="&lt;div style=&quot;color: rgb(204, 204, 204); font-family: Menlo, Monaco, &amp;quot;Courier New&amp;quot;, monospace; line-height: 18px; font-size: 12px;&quot;&gt;&lt;div style=&quot;line-height: 18px; font-size: 12px;&quot;&gt;&lt;div style=&quot;line-height: 18px; font-size: 12px;&quot;&gt;&lt;div style=&quot;line-height: 18px; font-size: 12px;&quot;&gt;&lt;div style=&quot;line-height: 18px; font-size: 12px;&quot;&gt;&lt;div style=&quot;background-color: rgb(31, 31, 31); line-height: 18px;&quot;&gt;&lt;div style=&quot;line-height: 18px;&quot;&gt;&lt;div style=&quot;line-height: 18px;&quot;&gt;&lt;div style=&quot;line-height: 18px;&quot;&gt;&lt;span style=&quot;color: #4fc1ff;&quot;&gt;ERROR_OUT_OF_BOUNDS&lt;/span&gt;&lt;/div&gt;&lt;/div&gt;&lt;/div&gt;&lt;/div&gt;&lt;/div&gt;&lt;/div&gt;&lt;/div&gt;&lt;/div&gt;&lt;/div&gt;" style="strokeWidth=2;html=1;shape=mxgraph.flowchart.terminator;whiteSpace=wrap;labelBackgroundColor=none;flipH=1;flipV=1;shadow=0;labelBorderColor=none;fillColor=#333333;fontSize=12;" vertex="1" parent="1">
                    <mxGeometry x="-2445.24" y="-1794" width="230" height="60" as="geometry"/>
                </mxCell>
                <mxCell id="498" style="edgeStyle=none;html=1;" edge="1" parent="1" source="487" target="497">
                    <mxGeometry relative="1" as="geometry"/>
                </mxCell>
                <mxCell id="487" value="&lt;div style=&quot;font-family: Menlo, Monaco, &amp;quot;Courier New&amp;quot;, monospace; font-weight: normal; font-size: 12px; line-height: 18px;&quot;&gt;&lt;div style=&quot;line-height: 18px; font-size: 12px;&quot;&gt;&lt;div style=&quot;line-height: 18px; font-size: 12px;&quot;&gt;&lt;div style=&quot;background-color: rgb(31, 31, 31); line-height: 18px;&quot;&gt;&lt;div style=&quot;line-height: 18px;&quot;&gt;&lt;div style=&quot;line-height: 18px;&quot;&gt;&lt;div style=&quot;line-height: 18px;&quot;&gt; &lt;span style=&quot;color: rgb(156, 220, 254);&quot;&gt;self&lt;/span&gt;&lt;font color=&quot;#cccccc&quot;&gt;.&lt;/font&gt;&lt;span style=&quot;color: rgb(156, 220, 254);&quot;&gt;strokes&lt;/span&gt;&lt;/div&gt;&lt;div style=&quot;line-height: 18px;&quot;&gt;&lt;font color=&quot;#cccccc&quot;&gt;[&lt;/font&gt;&lt;span style=&quot;color: rgb(156, 220, 254);&quot;&gt;self&lt;/span&gt;&lt;font color=&quot;#cccccc&quot;&gt;.&lt;/font&gt;&lt;span style=&quot;color: rgb(156, 220, 254);&quot;&gt;strokeIdx&lt;/span&gt;&lt;span style=&quot;color: rgb(212, 212, 212);&quot;&gt;++&lt;/span&gt;&lt;font color=&quot;#cccccc&quot;&gt;] &lt;/font&gt;&lt;span style=&quot;color: rgb(212, 212, 212);&quot;&gt;=&lt;/span&gt; &lt;span style=&quot;color: rgb(156, 220, 254);&quot;&gt;stroke&lt;/span&gt;&lt;font color=&quot;#cccccc&quot;&gt;;&lt;/font&gt;&lt;/div&gt;&lt;/div&gt;&lt;/div&gt;&lt;/div&gt;&lt;/div&gt;&lt;/div&gt;&lt;/div&gt;" style="rounded=1;whiteSpace=wrap;html=1;labelBackgroundColor=none;flipH=1;flipV=1;shadow=0;labelBorderColor=none;fillColor=#333333;fontSize=12;" vertex="1" parent="1">
                    <mxGeometry x="-2656" y="-1743" width="180" height="60" as="geometry"/>
                </mxCell>
                <mxCell id="489" value="yes" style="edgeStyle=none;html=1;labelBackgroundColor=none;fontSize=12;" edge="1" parent="1" source="491" target="493">
                    <mxGeometry x="0.0127" y="19" relative="1" as="geometry">
                        <mxPoint as="offset"/>
                    </mxGeometry>
                </mxCell>
                <mxCell id="490" value="no" style="edgeStyle=none;html=1;entryX=0.5;entryY=0;entryDx=0;entryDy=0;" edge="1" parent="1" source="491" target="496">
                    <mxGeometry x="-0.0659" y="16" relative="1" as="geometry">
                        <mxPoint x="-2025" y="-1950" as="targetPoint"/>
                        <mxPoint as="offset"/>
                    </mxGeometry>
                </mxCell>
                <mxCell id="491" value="&lt;div style=&quot;font-family: Menlo, Monaco, &amp;quot;Courier New&amp;quot;, monospace; font-weight: normal; font-size: 12px; line-height: 18px;&quot;&gt;&lt;span style=&quot;color: rgb(204, 204, 204); font-size: 12px;&quot;&gt;&lt;/span&gt;&lt;div style=&quot;line-height: 18px; font-size: 12px;&quot;&gt;&lt;span style=&quot;color: rgb(197, 134, 192); font-size: 12px;&quot;&gt;if&lt;/span&gt;&lt;span style=&quot;color: rgb(204, 204, 204); font-size: 12px;&quot;&gt;(&lt;/span&gt;&lt;/div&gt;&lt;div style=&quot;line-height: 18px; font-size: 12px;&quot;&gt;&lt;font color=&quot;#9cdcfe&quot; style=&quot;font-size: 12px;&quot;&gt;!&lt;/font&gt;&lt;span style=&quot;color: rgb(156, 220, 254); background-color: rgb(31, 31, 31);&quot;&gt;self&lt;/span&gt;&lt;/div&gt;&lt;div style=&quot;line-height: 18px; font-size: 12px;&quot;&gt;&lt;span style=&quot;color: rgb(204, 204, 204); font-size: 12px;&quot;&gt;)&lt;/span&gt;&lt;br style=&quot;font-size: 12px;&quot;&gt;&lt;/div&gt;&lt;/div&gt;" style="rhombus;whiteSpace=wrap;html=1;labelBackgroundColor=none;flipH=1;flipV=1;shadow=0;labelBorderColor=none;fillColor=#333333;fontSize=12;" vertex="1" parent="1">
                    <mxGeometry x="-2126.375" y="-2149" width="202.75" height="163" as="geometry"/>
                </mxCell>
                <mxCell id="492" style="edgeStyle=none;html=1;entryX=0.5;entryY=1;entryDx=0;entryDy=0;entryPerimeter=0;labelBackgroundColor=none;fontSize=12;" edge="1" parent="1" source="493" target="494">
                    <mxGeometry relative="1" as="geometry"/>
                </mxCell>
                <mxCell id="493" value="&lt;div style=&quot;color: rgb(204, 204, 204); font-family: Menlo, Monaco, &amp;quot;Courier New&amp;quot;, monospace; line-height: 18px; font-size: 12px;&quot;&gt;&lt;span style=&quot;color: rgb(220, 220, 170); font-size: 12px;&quot;&gt;ErrorHandler&lt;/span&gt;()&lt;/div&gt;" style="shape=process;whiteSpace=wrap;html=1;backgroundOutline=1;labelBackgroundColor=none;flipH=1;flipV=1;shadow=0;labelBorderColor=none;fillColor=#333333;fontSize=12;" vertex="1" parent="1">
                    <mxGeometry x="-1865.2399999999998" y="-2093" width="150" height="58" as="geometry"/>
                </mxCell>
                <mxCell id="494" value="&lt;div style=&quot;color: rgb(204, 204, 204); font-family: Menlo, Monaco, &amp;quot;Courier New&amp;quot;, monospace; line-height: 18px; font-size: 12px;&quot;&gt;&lt;div style=&quot;line-height: 18px; font-size: 12px;&quot;&gt;&lt;div style=&quot;line-height: 18px; font-size: 12px;&quot;&gt;&lt;div style=&quot;line-height: 18px; font-size: 12px;&quot;&gt;&lt;div style=&quot;line-height: 18px; font-size: 12px;&quot;&gt;&lt;div style=&quot;background-color: rgb(31, 31, 31); line-height: 18px;&quot;&gt;&lt;div style=&quot;line-height: 18px;&quot;&gt;&lt;div style=&quot;line-height: 18px;&quot;&gt;&lt;span style=&quot;color: #4fc1ff;&quot;&gt;ERROR_NULL_POINTER&lt;/span&gt;&lt;/div&gt;&lt;/div&gt;&lt;/div&gt;&lt;/div&gt;&lt;/div&gt;&lt;/div&gt;&lt;/div&gt;&lt;/div&gt;" style="strokeWidth=2;html=1;shape=mxgraph.flowchart.terminator;whiteSpace=wrap;labelBackgroundColor=none;flipH=1;flipV=1;shadow=0;labelBorderColor=none;fillColor=#333333;fontSize=12;" vertex="1" parent="1">
                    <mxGeometry x="-1905.2399999999998" y="-1998" width="230" height="60" as="geometry"/>
                </mxCell>
                <mxCell id="500" value="" style="edgeStyle=none;html=1;" edge="1" parent="1" source="496" target="499">
                    <mxGeometry relative="1" as="geometry"/>
                </mxCell>
                <mxCell id="496" value="&lt;div style=&quot;font-family: Menlo, Monaco, &amp;quot;Courier New&amp;quot;, monospace; font-weight: normal; font-size: 12px; line-height: 18px;&quot;&gt;&lt;div style=&quot;line-height: 18px; font-size: 12px;&quot;&gt;&lt;div style=&quot;line-height: 18px; font-size: 12px;&quot;&gt;&lt;div style=&quot;background-color: rgb(31, 31, 31); line-height: 18px;&quot;&gt;&lt;div style=&quot;line-height: 18px;&quot;&gt;&lt;div style=&quot;line-height: 18px;&quot;&gt;&lt;div style=&quot;line-height: 18px;&quot;&gt;&lt;div style=&quot;color: rgb(204, 204, 204); line-height: 18px;&quot;&gt;&lt;span style=&quot;color: #dcdcaa;&quot;&gt;free&lt;/span&gt;(&lt;span style=&quot;color: #9cdcfe;&quot;&gt;self&lt;/span&gt;-&amp;gt;&lt;span style=&quot;color: #9cdcfe;&quot;&gt;strokes&lt;/span&gt;)&lt;/div&gt;&lt;/div&gt;&lt;/div&gt;&lt;/div&gt;&lt;/div&gt;&lt;/div&gt;&lt;/div&gt;&lt;/div&gt;" style="rounded=1;whiteSpace=wrap;html=1;labelBackgroundColor=none;flipH=1;flipV=1;shadow=0;labelBorderColor=none;fillColor=#333333;fontSize=12;" vertex="1" parent="1">
                    <mxGeometry x="-2115" y="-1918" width="180" height="60" as="geometry"/>
                </mxCell>
                <mxCell id="497" value="&lt;div style=&quot;color: rgb(204, 204, 204); font-family: Menlo, Monaco, &amp;quot;Courier New&amp;quot;, monospace; line-height: 18px; font-size: 12px;&quot;&gt;&lt;div style=&quot;line-height: 18px; font-size: 12px;&quot;&gt;&lt;div style=&quot;line-height: 18px; font-size: 12px;&quot;&gt;&lt;div style=&quot;line-height: 18px; font-size: 12px;&quot;&gt;&lt;div style=&quot;line-height: 18px; font-size: 12px;&quot;&gt;&lt;div style=&quot;background-color: rgb(31, 31, 31); line-height: 18px;&quot;&gt;&lt;div style=&quot;line-height: 18px;&quot;&gt;&lt;div style=&quot;line-height: 18px;&quot;&gt;&lt;div style=&quot;line-height: 18px;&quot;&gt;&lt;span style=&quot;color: #4fc1ff;&quot;&gt;SUCCESS&lt;/span&gt;&lt;/div&gt;&lt;/div&gt;&lt;/div&gt;&lt;/div&gt;&lt;/div&gt;&lt;/div&gt;&lt;/div&gt;&lt;/div&gt;&lt;/div&gt;" style="strokeWidth=2;html=1;shape=mxgraph.flowchart.terminator;whiteSpace=wrap;labelBackgroundColor=none;flipH=1;flipV=1;shadow=0;labelBorderColor=none;fillColor=#333333;fontSize=12;" vertex="1" parent="1">
                    <mxGeometry x="-2681" y="-1640" width="230" height="60" as="geometry"/>
                </mxCell>
                <mxCell id="499" value="&lt;div style=&quot;font-family: Menlo, Monaco, &amp;quot;Courier New&amp;quot;, monospace; font-weight: normal; font-size: 12px; line-height: 18px;&quot;&gt;&lt;div style=&quot;line-height: 18px; font-size: 12px;&quot;&gt;&lt;div style=&quot;line-height: 18px; font-size: 12px;&quot;&gt;&lt;div style=&quot;background-color: rgb(31, 31, 31); line-height: 18px;&quot;&gt;&lt;div style=&quot;line-height: 18px;&quot;&gt;&lt;div style=&quot;line-height: 18px;&quot;&gt;&lt;div style=&quot;line-height: 18px;&quot;&gt;&lt;div style=&quot;color: rgb(204, 204, 204); line-height: 18px;&quot;&gt;&lt;span style=&quot;color: #dcdcaa;&quot;&gt;free&lt;/span&gt;(&lt;span style=&quot;color: #9cdcfe;&quot;&gt;self&lt;/span&gt;)&lt;/div&gt;&lt;/div&gt;&lt;/div&gt;&lt;/div&gt;&lt;/div&gt;&lt;/div&gt;&lt;/div&gt;&lt;/div&gt;" style="rounded=1;whiteSpace=wrap;html=1;labelBackgroundColor=none;flipH=1;flipV=1;shadow=0;labelBorderColor=none;fillColor=#333333;fontSize=12;" vertex="1" parent="1">
                    <mxGeometry x="-2115" y="-1829" width="180" height="60" as="geometry"/>
                </mxCell>
                <mxCell id="501" value="&lt;span style=&quot;font-size: 30px;&quot;&gt;fontChar.c&lt;/span&gt;" style="text;html=1;strokeColor=none;fillColor=#333333;align=center;verticalAlign=middle;whiteSpace=wrap;rounded=0;strokeWidth=4;labelBackgroundColor=none;" vertex="1" parent="1">
                    <mxGeometry x="-2360" y="-2300" width="60" height="30" as="geometry"/>
                </mxCell>
            </root>
        </mxGraphModel>
    </diagram>
</mxfile>